<?xml version="1.0" encoding="utf-8"?>
<!-- Generator: Adobe Illustrator 21.0.0, SVG Export Plug-In . SVG Version: 6.00 Build 0)  -->
<svg version="1.1" id="Capa_1" xmlns="http://www.w3.org/2000/svg" xmlns:xlink="http://www.w3.org/1999/xlink" x="0px" y="0px"
	 viewBox="0 0 286 282" style="enable-background:new 0 0 286 282;" xml:space="preserve">
<style type="text/css">
	.st0{fill:none;stroke:#211915;stroke-miterlimit:10;}
	.st1{fill:#DA9500;stroke:#211915;stroke-miterlimit:10;}
	.st2{fill:#BB9D6C;stroke:#BB9D6C;stroke-miterlimit:10;}
	.st3{fill:#211915;stroke:#211915;stroke-miterlimit:10;}
	.st4{fill:none;}
	.st5{fill:#211915;}
	.st6{font-family:'NovitoNova-Thin';}
	.st7{font-size:70px;}
</style>
<g>
	<circle class="st0" cx="139.3" cy="20.5" r="3.9"/>
	<path class="st0" d="M139.4,56.9"/>
	<path class="st1" d="M194.4,186.8c0,3.3-24.9,6-55.3,6s-55-2.7-55-5.9s24.6-5.9,55-5.9S194.4,183.5,194.4,186.8z"/>
	<path class="st2" d="M171.8,203.9c0,1.8-13.5,3.3-30.1,3.3s-29.9-1.4-29.9-3.2c0-1.8,13.4-3.2,29.9-3.2S171.8,202.1,171.8,203.9z"
		/>
	<rect x="138.6" y="24.4" class="st3" width="1.2" height="5.2"/>
	<path class="st3" d="M200.7,156.2c1.6-0.6,2.6-3.2,2.6-3.2s-0.9,0-1.7,1C200.8,155,200.7,156.2,200.7,156.2z"/>
	<path class="st3" d="M183.4,123.4c2.4-1,4-4.9,4-4.9s-1.4-0.1-2.6,1.5C183.6,121.6,183.4,123.4,183.4,123.4z"/>
	<path class="st3" d="M217.5,143.9c-1-2.1-4.7-4.2-4.7-4.2s0,1.1,1.5,2.3C215.8,143.3,217.5,143.9,217.5,143.9z"/>
	<path class="st3" d="M152,190.3c1.8-1.5,3.1-5.5,3.1-5.5s-1,0.3-1.9,2C152.2,188.6,152,190.3,152,190.3z"/>
	<path class="st3" d="M209.5,108.1c-2.6,1.1-3,4.8-3,4.8s1.8,0,2.6-1.6C209.9,109.8,209.5,108.1,209.5,108.1z"/>
	<path class="st3" d="M218.5,124.9c0.4,2.6,3.8,3.9,3.8,3.9s0.4-1.7-0.9-2.8C220.1,124.9,218.5,124.9,218.5,124.9z"/>
	<path class="st0" d="M120.8,192.8L120.8,57c0,0,0.1-26.9,17.9-27.3c-13.3,0.9-13.6,30.1-13.6,30.1v121.3"/>
	<path class="st0" d="M139.1,192.8l0-135.8l0.1-27.3c-9.2,0-9.2,27.3-9.2,27.3v135.8"/>
	<path class="st0" d="M139.3,29.6c55,0,55.1,27.3,55.1,27.3v129.9"/>
	<path class="st0" d="M139.3,29.6c45.8,0,45.9,28.3,45.9,28.3c0.1,6.6,13.3,30.7,12.5,50.4c-0.1,1.8-1.2,17.3-1.2,19.1
		c0,33.4-11.3,62.7-11.3,62.7"/>
	<path class="st0" d="M139.3,29.6c36.8,0,36.8,27.3,36.8,27.3s-7.5,48.8-7.5,56.3s7.4,78.4,7.4,78.4"/>
	<path class="st0" d="M139.3,29.6c18.3,0,18.4,27.3,18.4,27.3l-0.1,135.6"/>
	<path class="st0" d="M139.3,29.6c9.2,0,9.2,27.3,9.2,27.3v135.9"/>
	<path class="st0" d="M84.1,186.9V57c0,0,0.1-27.3,55.1-27.3"/>
	<path class="st0" d="M166.9,192V56c0,0,0-26.4-27.5-26.4"/>
	<path class="st0" d="M111.6,192V57c0,0,0-27.3,27.6-27.3"/>
	<path class="st0" d="M139.3,29.7c-50.8,0-50.6,28.6-50.6,28.6v126.2"/>
	<path class="st0" d="M139.3,29.7C97.8,29.7,97.8,57,97.8,57v125.9"/>
	<path class="st0" d="M139.3,29.7c-32.4,0-32.4,28.5-32.4,28.5V182"/>
	<path class="st0" d="M139.3,29.7c-23.1,0-23.3,28.2-23.3,28.2v123.6"/>
	<path class="st0" d="M139.3,29.7c-4.1,0-5.1,30.1-5.1,30.1v121.1"/>
	<path class="st0" d="M139.3,29.7c50.8,0,50.6,29.1,50.6,29.1v125.7"/>
	<path class="st0" d="M139.3,29.7c41.6,0,41.5,28.2,41.5,28.2v125.1"/>
	<path class="st0" d="M139.3,29.7c32.4,0,32.4,28.9,32.4,28.9v123.5"/>
	<path class="st0" d="M139.3,29.7c23.1,0,23.3,28.2,23.3,28.2v123.7"/>
	<path class="st0" d="M139.3,29.7c13.9,0,14.2,30.1,14.2,30.1v121.7"/>
	<path class="st0" d="M139.3,29.7c4.1,0,5.1,30.1,5.1,30.1v121.3"/>
	<path class="st0" d="M139.2,29.7C93.4,29.7,93.2,57,93.2,57v133.1"/>
	<path class="st0" d="M139.2,29.7c-36.8,0-36.8,27.3-36.8,27.3l0.1,134.6"/>
</g>
<rect x="13.6" y="208.4" class="st4" width="278.4" height="70.6"/>
<text transform="matrix(1 0 0 1 13.5607 265.8439)" class="st5 st6 st7">BLUEDRESSED DOLL</text>
</svg>
