<?xml version="1.0" encoding="utf-8"?>
<!-- Generator: Adobe Illustrator 21.0.0, SVG Export Plug-In . SVG Version: 6.00 Build 0)  -->
<svg version="1.1" id="Capa_1" xmlns="http://www.w3.org/2000/svg" xmlns:xlink="http://www.w3.org/1999/xlink" x="0px" y="0px"
	 viewBox="0 0 157 497" style="enable-background:new 0 0 157 497;" xml:space="preserve">
<style type="text/css">
	.st0{fill:#FCF9F9;fill-opacity:0.75;stroke:#000000;stroke-width:4;}
	.st1{fill:#FCF9F9;stroke:#000000;stroke-width:8;stroke-linecap:round;stroke-linejoin:round;}
	.st2{fill:#962424;stroke:#962424;}
	.st3{fill:#962424;}
	.st4{fill:#FFFFFF;}
</style>
<path id="diez" class="st0" d="M83.1,62H117"/>
<path id="cero" class="st0" d="M83.1,382H117"/>
<path id="cinco" class="st0" d="M83.1,222H117"/>
<path id="seis" class="st0" d="M83.1,190h16.7"/>
<path id="siete" class="st0" d="M83.1,158h16.7"/>
<path id="ocho" class="st0" d="M83.1,126h16.7"/>
<path id="nueve" class="st0" d="M83.1,94h16.7"/>
<path id="cuatro" class="st0" d="M83.1,254h16.7"/>
<path id="tres" class="st0" d="M83.1,286h16.7"/>
<path id="dos" class="st0" d="M83.1,318h16.7"/>
<path id="uno" class="st0" d="M83.1,350h16.7"/>
<path id="rect2968" class="st1" d="M66.4,30c-9.3,0-16.7,7.1-16.7,16v372.3C39.7,423.8,33,434.2,33,446c0,17.7,15,32,33.4,32
	s33.4-14.3,33.4-32c0-11.8-6.7-22.2-16.7-27.7V46C83.1,37.1,75.7,30,66.4,30z"/>
<circle class="st2" cx="66" cy="446" r="22.1"/>
<rect x="59" y="60.8" class="st3" width="14" height="364.1"/>
<path class="st4" d="M61,429c0,0-10.2,1.7-11.5,9.2s2.5,5.8,4.8,4.1s7.9-4.8,8.7-8.8S63.6,428.3,61,429z"/>
<path class="st4" d="M48.8,446.8c-1.9,1.3-0.8,3.7-0.5,4.5s2.1,2.3,3.3,1.3s1.6-1.8,1.1-3.2C52.2,447.8,50.9,445.2,48.8,446.8z"/>
</svg>
